<svg width="441" height="127" viewBox="0 0 441 127" fill="none" xmlns="http://www.w3.org/2000/svg">
<path d="M358.676 21.3978C364.422 21.3978 368.878 16.852 368.878 11.1406C368.878 5.54579 364.422 1 358.676 1C353.047 1 348.356 5.54579 348.356 11.1406C348.239 16.852 353.047 21.3978 358.676 21.3978Z" fill="#2C3242"/>
<path d="M270.723 28.5079H286.085V37.8326C289.955 32.2377 298.516 27.1092 308.601 27.1092C327.716 27.1092 342.258 43.3108 342.258 63.2424C342.258 83.0574 327.716 99.3756 308.601 99.3756C298.516 99.3756 290.072 94.247 286.085 88.6522V127H270.723V28.5079ZM305.787 40.9797C293.356 40.9797 284.795 50.654 284.795 63.2424C284.795 75.7142 293.356 85.5051 305.787 85.5051C318.1 85.5051 326.661 75.8307 326.661 63.2424C326.661 50.7706 318.1 40.9797 305.787 40.9797Z" fill="#2C3242"/>
<path d="M377.674 28.5079H393.036V37.9491C397.258 30.9556 405.232 27.1092 414.262 27.1092C430.446 27.1092 441 38.5319 441 56.1323V97.9769H425.638V58.6966C425.638 47.7401 420.009 41.0962 411.096 41.0962C400.893 41.0962 393.036 49.0222 393.036 63.8252V97.9769H377.674V28.5079Z" fill="#2C3242"/>
<path d="M153.687 27.1092C144.657 27.1092 136.682 30.9556 132.461 37.9491V1H117.098V97.9769H132.461V63.8252C132.461 49.0222 140.318 41.0962 150.52 41.0962C159.433 41.0962 165.062 47.7401 165.062 58.6966V97.9769H180.424V56.1323C180.307 38.5319 169.87 27.1092 153.687 27.1092Z" fill="#2C3242"/>
<path d="M366.181 28.5079H350.819V97.9769H366.181V28.5079Z" fill="#2C3242"/>
<path d="M225.574 99.3756C204.934 99.3756 188.985 83.407 188.985 63.2424C188.985 43.0777 204.934 27.1092 225.574 27.1092C246.213 27.1092 262.162 43.0777 262.162 63.2424C262.162 83.407 246.213 99.3756 225.574 99.3756ZM225.574 85.1554C237.887 85.1554 246.565 75.5976 246.565 63.2424C246.565 50.8871 237.887 41.3293 225.574 41.3293C213.143 41.3293 204.465 50.8871 204.465 63.2424C204.465 75.5976 213.143 85.1554 225.574 85.1554Z" fill="#2C3242"/>
<path d="M61.1528 19.5772C61.0358 24.2217 57.759 30.84 52.2586 30.84C48.8648 30.84 46.0561 28.0533 46.0561 24.6861V24.57C45.9391 19.1128 43.4815 14.3523 39.6195 10.9851C36.6938 8.54675 33.0659 6.9212 29.0869 6.45676C32.4808 2.97344 37.279 0.883453 42.5453 0.883453C49.2159 0.883453 55.3014 4.7151 58.8122 10.2884C60.4507 13.0751 61.2699 16.4423 61.1528 19.5772Z" fill="#175FFF"/>
<path d="M39.3854 20.0417C42.3111 23.7572 44.0666 30.84 39.8535 34.3233C37.1619 36.5294 33.2999 36.1811 31.0764 33.6266C27.4485 29.5628 22.4163 27.4728 17.384 27.3567C13.5221 27.2405 9.66014 28.4016 6.38333 30.6077C6.73442 25.8472 8.95796 21.0867 13.054 17.7195C18.3203 13.4234 25.6931 12.1462 32.0126 14.7006C34.9383 15.7456 37.513 17.6034 39.3854 20.0417Z" fill="#175FFF"/>
<path d="M23.0014 34.2072C27.5655 35.1361 33.651 39.5483 32.7148 44.8893C32.1296 48.2565 28.8528 50.4626 25.459 49.8821H25.342C19.9586 49.0693 14.6924 50.6949 10.8304 53.8298C7.90469 56.1521 5.56411 59.5193 4.51086 63.3509C1.70217 59.4032 0.41485 54.4104 1.23405 49.1854C2.52137 42.5671 7.31955 36.9938 13.8732 34.7877C16.7989 33.8588 20.0757 33.6266 23.0014 34.2072Z" fill="#175FFF"/>
<path d="M19.6076 55.5715C23.7036 53.3654 31.1934 52.901 33.8851 57.5454C35.6405 60.4481 34.5872 64.2798 31.6615 66.0215C26.9804 68.8081 24.0546 73.3364 23.0014 78.3292C22.2992 82.0447 22.6503 85.9925 24.4057 89.5919C19.7246 88.4308 15.3945 85.4119 12.8199 80.8836C9.42605 74.962 9.54308 67.647 13.0539 61.8415C14.6923 59.1709 16.9159 56.9648 19.6076 55.5715Z" fill="#175FFF"/>
<path d="M30.8423 74.0331C32.5977 69.737 37.981 64.6281 43.0133 66.4859C46.2901 67.647 47.9285 71.2464 46.7582 74.3814C45.0028 79.4903 45.7049 84.8314 48.1625 89.2436C50.035 92.6108 52.8437 95.2813 56.4716 97.023C52.0245 99.1129 46.8752 99.5774 41.96 97.7196C35.5234 95.3974 30.8423 89.708 29.789 82.9736C29.438 79.9547 29.789 76.8197 30.8423 74.0331Z" fill="#175FFF"/>
<path d="M51.4393 80.9997C49.918 76.5875 50.7372 69.2725 55.8864 67.4148C59.1632 66.2537 62.6741 67.8792 63.8444 71.1303C65.8339 76.1231 69.8129 79.8386 74.611 81.6964C78.1219 83.0897 82.2179 83.3219 86.0798 82.393C84.0904 86.8052 80.3454 90.4046 75.4302 92.2624C68.9937 94.5846 61.6208 93.1913 56.5886 88.663C54.248 86.4569 52.3756 83.9025 51.4393 80.9997Z" fill="#175FFF"/>
<path d="M71.8024 73.2203C67.8235 70.782 63.6104 64.6281 66.4191 59.9837C68.1745 57.0809 71.9195 56.036 74.9622 57.6615C79.7604 60.2159 85.1437 60.5643 90.0589 58.9387C93.6868 57.6615 96.9636 55.3393 99.3042 52.0882C100.592 56.7326 100.123 61.8415 97.4317 66.3698C94.0379 72.2914 87.4843 75.8909 80.6966 75.6586C77.4198 75.6586 74.26 74.8459 71.8024 73.2203Z" fill="#175FFF"/>
<path d="M82.3349 54.2943C77.6538 54.991 70.515 52.901 69.5788 47.5599C68.8766 44.3088 71.2172 41.0577 74.611 40.4771H74.728C80.1114 39.4321 84.4414 36.181 87.0161 31.885C89.0056 28.6339 89.9418 24.8022 89.5907 20.8545C93.5697 23.525 96.6124 27.8211 97.4316 32.93C98.6019 39.5483 95.9102 46.5149 90.644 50.6949C88.1864 52.5526 85.2606 53.946 82.3349 54.2943Z" fill="#175FFF"/>
<path d="M78.122 33.1622C74.9622 36.6455 68.1746 39.6644 63.9615 36.181C61.2699 33.9749 60.9188 30.1433 63.1423 27.4728C66.5362 23.2928 67.8235 17.9517 67.0043 12.9589C66.4191 9.2434 64.6637 5.64398 61.855 2.74122C66.6532 2.27677 71.6854 3.6701 75.7814 7.0373C81.0477 11.3334 83.5053 18.4161 82.101 25.0344C81.5158 28.0533 80.1115 30.9561 78.122 33.1622Z" fill="#175FFF"/>
</svg>
