<svg xmlns="http://www.w3.org/2000/svg" viewBox="0 0 262.1 243.95"><defs><style>.cls-1{isolation:isolate;}.cls-2{fill:#ffde17;}.cls-3{fill:#f1f2f2;}.cls-4{fill:#f26522;}.cls-5,.cls-7{fill:#231f20;mix-blend-mode:multiply;}.cls-5{opacity:0.1;}.cls-6{fill:#808285;}.cls-7{opacity:0.2;}</style></defs><title>Artboard 21</title><g class="cls-1"><g id="Layer_1" data-name="Layer 1"><rect x="114.25" y="168.67" width="56.23" height="9.17" rx="4.58" ry="4.58"/><path class="cls-2" d="M124.81,137.9c-5.2,4.41-12.75.77-16.55-3.73-1.67-2-2.91-4.92-4.89-6.42-2.78-2.26-5.49.59-4.32,3.61s3.82,5.15,6.39,6.71c-2.44-1.69-6.47-2.24-9-.29-3.5,2.62-.56,6,2.32,7.39,2.56,1.3,5.28,1.23,8.06,1.09-2.84.46-6.13,1-7.29,4.07-1.24,3.28,1.22,5.49,4,6.84a10.67,10.67,0,0,0,5.08,1,16,16,0,0,0,9.45-3.8,21.35,21.35,0,0,0,6-6.59c1.11-2.36,2.17-6.53.75-8.9"/><path class="cls-3" d="M164.11,162.26s-16.09,3.34-14.6-27.46-38.87-15.16-36.06,6.44S141.48,180.85,164.11,162.26Z"/><path class="cls-2" d="M162.27,162.35c-4.17-.2-13.94-3.25-12.77-27.55s-23.52-19.72-32.77-6.2a6.64,6.64,0,0,1,1-.56c2.82-1.35,3.66,1.64,3.91,3.82.23-1.33,1.49-2.58,2.45-3.45a10,10,0,0,1,8.39-2.47,6.91,6.91,0,0,1,4.28,3.22c1.57,2.93,1.54,7,1.39,10.22-.24,5.08-.79,10.19-.06,15.26a20.36,20.36,0,0,0,3.85,9.79,10.56,10.56,0,0,0,5.62,3.2c3.63.7,7.42-1,10.56-2.65A30.62,30.62,0,0,0,162.27,162.35Z"/><path class="cls-2" d="M161.61,163a9.67,9.67,0,0,0-1.36-2.88,14.39,14.39,0,0,1-1.52-3.06,3.25,3.25,0,0,1,.14-2.84c.64-.86,1.4,0,1.71.68a8.73,8.73,0,0,1,.72,2.88c.09,1,.07,2,.15,3a8.57,8.57,0,0,1,.56-3.19c.15-.46.45-1.39,1-1.48,1.17-.19.55,2.24.43,2.7-.28,1.09-.53,2.19-.76,3.3a15.76,15.76,0,0,0,1.15-1.52c.32-.41.63-1,1.17-1.15a.54.54,0,0,1,.73.54c.07.88-.69,1.53-1.31,2a16.91,16.91,0,0,1-2.49,1.71"/><polygon class="cls-4" points="119.49 141.46 126.27 141.4 122.99 147.88 119.49 141.46"/><path class="cls-5" d="M151.83,153.89s-9-1.65-10.4-13.61l9.25,9.66A17.67,17.67,0,0,0,151.83,153.89Z"/><path class="cls-2" d="M141.4,139.67c6.55,1.91,12-4.48,13.6-10.15.72-2.48.66-5.68,1.85-7.86,1.62-3.2,5.26-1.7,5.41,1.54.22,3.06-1.39,6.26-3.1,8.73,1.54-2.54,5-4.68,8.06-3.91,4.26,1,3,5.29.89,7.7-1.81,2.23-4.32,3.27-6.92,4.28,2.78-.74,6-1.59,8.31.75,2.47,2.49,1.12,5.51-.82,7.86a10.69,10.69,0,0,1-4.24,3,15.94,15.94,0,0,1-10.18.37,21.34,21.34,0,0,1-8.12-3.6c-2-1.71-5-5.92-4.7-8.66"/><path class="cls-6" d="M120.76,138.75a.5.5,0,0,1-.46-.32c-.41-1-1.39-2.68-2.26-2.69h0c-.56,0-1.18.74-1.75,2.08a.5.5,0,1,1-.92-.39c.77-1.81,1.64-2.69,2.67-2.69h0c1.81,0,3,3,3.18,3.32a.5.5,0,0,1-.28.65A.51.51,0,0,1,120.76,138.75Z"/><path class="cls-6" d="M125.23,138.55l-.13,0a.5.5,0,0,1-.35-.61c.51-1.91,1.26-2.91,2.29-3,1.78-.24,3.43,2.53,3.61,2.84a.5.5,0,0,1-.87.5c-.56-1-1.8-2.46-2.62-2.35-.56.07-1.07.89-1.45,2.31A.5.5,0,0,1,125.23,138.55Z"/><ellipse class="cls-7" cx="156.63" cy="227.06" rx="98.51" ry="4.64"/><path d="M94.67,192l-6.51,26.64s68.28,23.61,113.14-1.58l-5.59-24.23S154.71,214.62,94.67,192Z"/><ellipse cx="144.22" cy="43.6" rx="6.98" ry="4.47" transform="translate(-3.17 12.35) rotate(-4.85)"/><path d="M145.36,41.21a1.53,1.53,0,0,1-1.28-2.38,17.29,17.29,0,0,0-4.91-24,13.53,13.53,0,0,0-18.74,3.84,10.53,10.53,0,0,0,3,14.57A8.12,8.12,0,0,0,134.64,31a1.53,1.53,0,1,1,2.56,1.69,11.19,11.19,0,0,1-15.48,3.17A13.6,13.6,0,0,1,117.86,17a16.59,16.59,0,0,1,23-4.71,20.36,20.36,0,0,1,5.78,28.2A1.53,1.53,0,0,1,145.36,41.21Z"/><path d="M113.94,203.13C85.47,55.83,127.72,45.45,129.53,45.08l.61,3-.31-1.5.32,1.5c-.1,0-10.24,2.49-17,22.45-6.31,18.7-10.77,56.78,3.77,132Z"/><path d="M135.21,206.27C124.06,63.08,140,45.35,140.64,44.67l2.2,2.13c-.64.72-15.48,19.16-4.57,159.23Z"/><path d="M161.58,206.92l-3-.33c12.82-118.95-8.42-158.74-8.64-159.13L152.57,46C153.47,47.59,174.5,87,161.58,206.92Z"/><path d="M179.74,202.44a1.53,1.53,0,0,1-1.48-1.95c10-35.33,18.89-85.19,5-122.08-8.27-21.92-20.92-28.92-21-29a1.54,1.54,0,0,1-.63-2.07c.4-.74,1.93-.31,2.68.09.55.29,13,6.72,21.74,29.56,7.94,20.8,13.56,59.25-4.76,124.32A1.53,1.53,0,0,1,179.74,202.44Z"/><circle class="cls-3" cx="43.11" cy="123.21" r="28.08"/><path class="cls-3" d="M66.75,123.21c1.42,0,28,10.87,28,10.87l-30.41-1.89Z"/><path d="M52.15,115.92c.22-1.13-.1-1.4-1.21-1-3,1-6.06,1.9-9.11,2.79a1.65,1.65,0,0,0-1.38,1.45c-.65,3.73-1.42,7.43-2.07,11.16s-2.76,5.85-6.26,6.36a5.81,5.81,0,0,1-5.64-2.89,4.16,4.16,0,0,1,2.62-6,6.43,6.43,0,0,1,6.74,2c.22.25.29.8.76.64s.38-.59.4-1c.17-3.09.36-6.18.51-9.27.11-2.16.19-4.31.23-6.47,0-.79.3-1.22,1.09-1.33l15.83-2.27c1-.14,2-.27,3-.43.75-.12,1.1.14,1,.92,0,.16-.07.32-.09.48-.39,2.38-.38,2.4-2.76,2.6-.63.05-.92.26-1,.92-.63,4.06-1.35,8.11-2,12.17-.69,4.65-5.46,7.45-9.41,5.47a4.63,4.63,0,0,1-2.68-5.43c.53-1.85,2.67-3.06,5-2.91a6.15,6.15,0,0,1,4.59,2.22c.19.23.32.65.74.51s.37-.5.39-.82Z"/><path d="M192,202.44a1.53,1.53,0,0,1-1.45-2c.29-.88,29.13-88.72-.1-130.82C180.63,55.5,165.24,48,144.68,47.28c-20.28-.72-35.5,5.54-45.27,18.54-29.8,39.67-.66,130-.36,130.94a1.53,1.53,0,1,1-2.91,1,317.94,317.94,0,0,1-11.25-51.15C79.95,109,84,81.23,97,64c10.4-13.85,26.48-20.5,47.82-19.76,21.58.75,37.78,8.7,48.16,23.64,12.67,18.25,16.6,46.3,11.66,83.38a305.31,305.31,0,0,1-11.17,50.16A1.53,1.53,0,0,1,192,202.44Z"/></g></g></svg>