<svg xmlns="http://www.w3.org/2000/svg" id="Layer_1" data-name="Layer 1" viewBox="0 0 50.21 35.05">
  <ellipse cx="27.8" cy="32.92" fill="rgba(60,60,60,0.5)" rx="19.64" ry="1.2"/>
  <path fill="#fff" d="M46.48 15.53a5.2 5.2 0 00-2-.31 7 7 0 00-1.43.19 7.66 7.66 0 001.19-1.52 7.12 7.12 0 011.12-.13 5.18 5.18 0 012 .31h.05a2.82 2.82 0 011.44 1.24 2.75 2.75 0 01.18 2 2.36 2.36 0 00-.74-.46 2 2 0 01.86 1c.11.45-.23 1-.67.92a1.86 1.86 0 00-.22-1 2.65 2.65 0 00-.29-1 2.74 2.74 0 00-1.49-1.24zM16.56 28.07c.06-.21.37-1.29.19-1.47 0 0 5.18 5.08 7.22-2.7a6 6 0 001.16.62c-.75 7-6.44 3.43-6.44 3.43.22.13.14 1.25.12 1.47-.16 2.2-3 1.63-3.74.11a2.44 2.44 0 01-.14-.34 1.4 1.4 0 001.63-1.12z" class="cls-2"/>
  <path fill="#fff" d="M1.26 14.52c.08.23.18.45.28.67v.05c1.26 2.67 3.76 5 6.81 4.61a12 12 0 003.51-1.05 8.6 8.6 0 013.64-1 7.28 7.28 0 00.1 2.65A9.82 9.82 0 0117 18.5s-.77 2.34-.41 3a1 1 0 00-.15-.18 1.28 1.28 0 00-.8-.4 1 1 0 00-.89.7c-.23.45-.24.83-.63 1.17-1 .87-2.17 2-1.79 3.47a2.64 2.64 0 002.06 1.82A1.39 1.39 0 0016 27c.06-.21.36-1.28.18-1.46 0 0 5.19 5.07 7.23-2.7a5.65 5.65 0 001.16.61c1.43.56 3.94.91 6.11-2.07a20.36 20.36 0 005.68 1.13s-1.55-.55-1.61-1.28c0 0 3.84 1 6 0l-2.43-.32a3.69 3.69 0 001.68-.42 5.24 5.24 0 012.46 0c.73.08 1.06-.31 1.54-.78a1.17 1.17 0 00.09.33 2.06 2.06 0 00.12.35 3.21 3.21 0 00.37.65 1.35 1.35 0 001.27.53.92.92 0 00.53-.28 1.2 1.2 0 00.19-1.16 2 2 0 00-.77-.94 1.85 1.85 0 011 1.76c.44.08.78-.48.67-.93a1.13 1.13 0 00-.13-.32 2.4 2.4 0 00-.72-.7 2.26 2.26 0 01.74.45 2.67 2.67 0 00.1-.64v-.3a2.59 2.59 0 00-.28-1A2.65 2.65 0 0046 16.32l-.14-.06-.08-.05h-.06a10.1 10.1 0 00-3.9-.54 6.3 6.3 0 001.59-2.45 3 3 0 01-.12.73s1.61-.69.71-2.95a1 1 0 01.63.49 4.17 4.17 0 00-1.74-2.81 2.35 2.35 0 01.88.17 3.64 3.64 0 00-1.72-1.34l-.27-2.21.88.31s0-.35-.89-.86a7.17 7.17 0 00.36-3.37C39.32 1 38.27 2.48 38 2.94a12.73 12.73 0 00-2.56.26 2.83 2.83 0 011.29-.62 3.87 3.87 0 00-3.23.94s-2.73-2-5.37-1.29c0 0-.27 1.36 1.42 4.77a6.37 6.37 0 00-2.31 2.67 7.38 7.38 0 011.63-1.59s-2.44 2.6-1.46 4.67a3.77 3.77 0 01.35-1.55c0 .4-.24 3.2 1 4.61a9.92 9.92 0 01-.32-2s.37 2.53 3.84 3.6a4.35 4.35 0 01-1.49-1.54 11.65 11.65 0 002.47 1.23c-.61.18-1 .31-1 .31l-.81.38a6.56 6.56 0 01-2.34-1.49h-.07a.58.58 0 01-.31.08.64.64 0 01-.46-.21 5.47 5.47 0 01-1.14-2.91.66.66 0 01-.33-.31 3.48 3.48 0 01-.19-2.24 6.84 6.84 0 00-6.5-.26 18.29 18.29 0 012.43.43s-4.84.26-7.22 3.71c0 0 1.93-2 2.77-1.7a8.44 8.44 0 00-2.1 3A9.13 9.13 0 0012 16c-3.7.78-5.2-1.7-5.79-3.65 0-.13-.08-.25-.11-.37a.14.14 0 000-.07v-.16a.14.14 0 010-.06q-.1-.24-.1-.47v-.05a.68.68 0 000-.14 2.4 2.4 0 010-.24v-.09a.09.09 0 000-.05v-.08a.28.28 0 010-.09v-.12c-.09-2-1.43-2.88-3-1.92C.82 9.6.44 12.35 1.26 14.52zm26.58-3.41v.05z" class="cls-2"/>
</svg>